<?xml version="1.0" encoding="UTF-8"?>
<svg version="1.1" xmlns="http://www.w3.org/2000/svg" width="180" height="180">
<path d="M0 0 C16.44656924 14.12445001 27.19316457 33.88409399 30 55.4375 C31.85164241 82.80609946 24.811556 105.5885429 7 126.4375 C6.42765625 127.11167969 5.8553125 127.78585938 5.265625 128.48046875 C-8.6346681 143.51618184 -30.27425879 152.88712636 -50.48828125 153.81640625 C-62.86925483 154.14006363 -74.3311473 153.92445169 -86 149.4375 C-87.2065625 148.99019531 -88.413125 148.54289063 -89.65625 148.08203125 C-110.22532458 139.88516713 -127.53763418 123.45322432 -137 103.4375 C-146.26352475 81.21914749 -147.47590678 56.54738276 -138.64453125 33.97265625 C-128.62128818 10.94338196 -111.47217343 -6.42332295 -88.16308594 -15.74902344 C-57.48814304 -27.28501777 -25.2228114 -19.78323205 0 0 Z " fill="#15751C" transform="translate(147,23.5625)"/>
<path d="M0 0 C0.61617188 0.54527344 1.23234375 1.09054688 1.8671875 1.65234375 C2.54523438 2.24917969 3.22328125 2.84601562 3.921875 3.4609375 C14.9457092 13.79838202 20.65732018 27.33497187 21.2421875 42.33984375 C20.9381427 57.12402237 15.17134071 70.90914836 5.0390625 81.59375 C-6.0430404 92.09782955 -19.48354072 97.52966044 -34.68359375 97.15869141 C-52.30836111 96.25063274 -64.62005869 89.00789327 -76.4453125 76.21484375 C-84.26268944 66.65291094 -87.70453462 54.99487214 -87.5703125 42.83984375 C-87.56201416 41.87006592 -87.55371582 40.90028809 -87.54516602 39.90112305 C-87.18611765 24.65626164 -80.80888546 12.31303372 -69.796875 1.79296875 C-49.73332983 -14.32847224 -20.67219811 -16.85513248 0 0 Z " fill="#105216" transform="translate(123.1328125,47.34765625)"/>
<path d="M0 0 C16.44656924 14.12445001 27.19316457 33.88409399 30 55.4375 C31.85164241 82.80609946 24.811556 105.5885429 7 126.4375 C6.42765625 127.11167969 5.8553125 127.78585938 5.265625 128.48046875 C-8.6346681 143.51618184 -30.27425879 152.88712636 -50.48828125 153.81640625 C-62.86925483 154.14006363 -74.3311473 153.92445169 -86 149.4375 C-87.2065625 148.99019531 -88.413125 148.54289063 -89.65625 148.08203125 C-110.22532458 139.88516713 -127.53763418 123.45322432 -137 103.4375 C-146.26352475 81.21914749 -147.47590678 56.54738276 -138.64453125 33.97265625 C-128.62128818 10.94338196 -111.47217343 -6.42332295 -88.16308594 -15.74902344 C-57.48814304 -27.28501777 -25.2228114 -19.78323205 0 0 Z M-116.1328125 11.7578125 C-132.07573117 30.29483319 -138.57580199 51.14120607 -137 75.4375 C-134.89447704 94.67432343 -125.26552526 115.06004708 -110 127.4375 C-93.84044777 139.72050197 -77.82525673 146.73249766 -57.3125 146.875 C-56.27971924 146.88515137 -55.24693848 146.89530273 -54.18286133 146.90576172 C-33.2302352 146.66912186 -14.29977531 137.46367668 0.75 123.25 C17.57239106 105.64403323 23.64494177 84.86846934 23.19140625 60.8359375 C23.02445067 55.86087122 22.36717152 51.2268996 21 46.4375 C20.70802734 45.25220703 20.70802734 45.25220703 20.41015625 44.04296875 C15.21520975 24.52349522 1.57198107 7.26835378 -15.8125 -2.875 C-22.5631312 -6.6318488 -29.6012045 -9.33926096 -37 -11.5625 C-37.79148437 -11.80871094 -38.58296875 -12.05492187 -39.3984375 -12.30859375 C-66.57138899 -19.22101123 -97.43018644 -8.58900046 -116.1328125 11.7578125 Z " fill="#EBF2EC" transform="translate(147,23.5625)"/>
<path d="M0 0 C16.44656924 14.12445001 27.19316457 33.88409399 30 55.4375 C31.85164241 82.80609946 24.811556 105.5885429 7 126.4375 C6.42765625 127.11167969 5.8553125 127.78585938 5.265625 128.48046875 C-8.6346681 143.51618184 -30.27425879 152.88712636 -50.48828125 153.81640625 C-62.86925483 154.14006363 -74.3311473 153.92445169 -86 149.4375 C-87.2065625 148.99019531 -88.413125 148.54289063 -89.65625 148.08203125 C-110.22532458 139.88516713 -127.53763418 123.45322432 -137 103.4375 C-146.26352475 81.21914749 -147.47590678 56.54738276 -138.64453125 33.97265625 C-128.62128818 10.94338196 -111.47217343 -6.42332295 -88.16308594 -15.74902344 C-57.48814304 -27.28501777 -25.2228114 -19.78323205 0 0 Z M-100 -5.5625 C-100.84949219 -5.07910156 -101.69898438 -4.59570312 -102.57421875 -4.09765625 C-121.20639537 7.44291993 -134.4284381 26.73514631 -139.51171875 47.97265625 C-143.6653634 68.94025446 -140.51986178 93.19236009 -128.55078125 111.28515625 C-127.78314453 112.35056641 -127.78314453 112.35056641 -127 113.4375 C-126.47792969 114.17871094 -125.95585938 114.91992188 -125.41796875 115.68359375 C-111.82097616 134.05704744 -94.22275085 144.66396281 -72 149.4375 C-70.85337891 149.71787109 -70.85337891 149.71787109 -69.68359375 150.00390625 C-49.22044673 153.31017891 -26.91604791 148.40531621 -10 136.4375 C-6.54850164 133.89651962 -3.2440807 131.23799141 0 128.4375 C0.68964844 127.84453125 1.37929687 127.2515625 2.08984375 126.640625 C16.86008916 112.95255598 26.34034867 91.57035523 27.2578125 71.63671875 C27.96239646 48.05055308 20.86006049 27.13846037 5 9.4375 C-2.13620997 1.98270923 -9.98640169 -3.58218054 -19 -8.5625 C-19.84691406 -9.04589844 -20.69382812 -9.52929688 -21.56640625 -10.02734375 C-46.65082777 -22.9424841 -76.36112448 -19.23494085 -100 -5.5625 Z " fill="#11521A" transform="translate(147,23.5625)"/>
<path d="M0 0 C0.61617188 0.54527344 1.23234375 1.09054688 1.8671875 1.65234375 C2.54523438 2.24917969 3.22328125 2.84601562 3.921875 3.4609375 C14.9457092 13.79838202 20.65732018 27.33497187 21.2421875 42.33984375 C20.9381427 57.12402237 15.17134071 70.90914836 5.0390625 81.59375 C-6.0430404 92.09782955 -19.48354072 97.52966044 -34.68359375 97.15869141 C-52.30836111 96.25063274 -64.62005869 89.00789327 -76.4453125 76.21484375 C-84.26268944 66.65291094 -87.70453462 54.99487214 -87.5703125 42.83984375 C-87.56201416 41.87006592 -87.55371582 40.90028809 -87.54516602 39.90112305 C-87.18611765 24.65626164 -80.80888546 12.31303372 -69.796875 1.79296875 C-49.73332983 -14.32847224 -20.67219811 -16.85513248 0 0 Z M-65.1328125 4.65234375 C-66.463125 5.54953125 -66.463125 5.54953125 -67.8203125 6.46484375 C-76.33478801 14.51907734 -81.95221445 25.44144249 -82.3359375 37.1640625 C-82.59050215 53.8718817 -79.78369308 66.06343576 -68.18359375 78.76953125 C-55.70525311 90.22583637 -42.57494224 92.30591285 -26.35107422 91.78857422 C-21.93356224 91.51728083 -18.14135835 90.47911649 -14.1328125 88.65234375 C-13.39289063 88.32363281 -12.65296875 87.99492187 -11.890625 87.65625 C1.57744608 80.92221446 10.24432385 69.67447486 14.94921875 55.60546875 C18.5343195 42.01181769 15.8095895 29.38661885 8.9921875 17.40234375 C1.19982539 5.12111468 -9.87821911 -2.94747801 -24.1328125 -6.34765625 C-40.02373065 -7.99303742 -52.42811312 -5.25261632 -65.1328125 4.65234375 Z " fill="#F1F5F1" transform="translate(123.1328125,47.34765625)"/>
<path d="M0 0 C0.69085942 12.2435641 -1.27472929 20.46613618 -9.1484375 29.96484375 C-15.83729758 37.31694523 -23.24531199 41.79139139 -33 44 C-35.9375 44.125 -35.9375 44.125 -38 44 C-34.99778258 38.39658338 -30.69021885 33.96311325 -26.47460938 29.26367188 C-25.90162109 28.61591797 -25.32863281 27.96816406 -24.73828125 27.30078125 C-24.21274658 26.71466064 -23.68721191 26.12854004 -23.14575195 25.5246582 C-21.79974748 24.05138601 -21.79974748 24.05138601 -22 22 C-22.4125 22.42410156 -22.825 22.84820312 -23.25 23.28515625 C-35.12903226 35.34979839 -35.12903226 35.34979839 -42 39 C-42.94796478 29.52035221 -39.53237953 22.78385113 -33.94921875 15.22265625 C-24.6127108 4.19463176 -14.35884358 -0.5200386 0 0 Z " fill="#94C938" transform="translate(134,90)"/>
<path d="M0 0 C3.93591811 5.87464178 4.65232912 12.04096459 4.5 18.9375 C4.48791504 19.81704346 4.47583008 20.69658691 4.46337891 21.6027832 C4.26493332 28.08473778 3.38160427 33.37099414 0 39 C-0.43570313 39.7734375 -0.87140625 40.546875 -1.3203125 41.34375 C-4.65243253 46.80624186 -8.7409531 51.31629823 -14 55 C-14.66 55 -15.32 55 -16 55 C-15.23747518 48.75080237 -13.86066152 42.69069631 -12.4375 36.5625 C-11.633125 33.076875 -10.82875 29.59125 -10 26 C-15.445 39.365 -15.445 39.365 -21 53 C-21.66 53 -22.32 53 -23 53 C-27.4324045 42.28835579 -27.38210807 31.59430164 -23.2578125 20.75 C-19.89200458 13.39121498 -9.55953056 -3.18651019 0 0 Z " fill="#93C937" transform="translate(107,51)"/>
<path d="M0 0 C11.46802101 -0.77749295 21.45176963 2.56677308 30.48828125 9.6640625 C38.04783975 16.69456947 43.63645733 25.09268933 44.1875 35.5625 C44.0946875 36.7690625 44.0946875 36.7690625 44 38 C39.83544737 35.68206718 36.28097056 32.85260852 32.6875 29.75 C32.1200708 29.26490967 31.5526416 28.77981934 30.96801758 28.2800293 C26.61661126 24.55316758 22.28996484 20.79746132 18 17 C17.88403037 18.34531482 17.88403037 18.34531482 19.94140625 20.00390625 C20.80636719 20.84824219 21.67132813 21.69257812 22.5625 22.5625 C26.37247498 26.32942441 29.98643804 30.17055528 33.4609375 34.24609375 C34.88940097 35.87396202 36.37455769 37.3775441 37.9375 38.875 C40 41 40 41 40 43 C27.4987448 42.19346741 17.73760326 37.37985592 8.96484375 28.421875 C3.407677 21.57208696 -0.17862735 13.57567868 -0.0625 4.75 C-0.05347656 3.85796875 -0.04445312 2.9659375 -0.03515625 2.046875 C-0.02355469 1.37140625 -0.01195312 0.6959375 0 0 Z " fill="#94CA38" transform="translate(46,90)"/>
<path d="M0 0 C0.33 0 0.66 0 1 0 C1.830253 10.83941411 -1.24635988 18.6382948 -8.1484375 26.96484375 C-14.83729758 34.31694523 -22.24531199 38.79139139 -32 41 C-34.9375 41.125 -34.9375 41.125 -37 41 C-33.29724008 34.37400856 -30.31348262 30.29442592 -23 28 C-17.36775043 24.5348685 -13.04981433 20.18498955 -9 15 C-9 18.56166249 -9.7172542 19.27442636 -11.875 22 C-13.68036977 24.30250058 -15.37401917 26.56102876 -17 29 C-7.76474665 20.6085769 -2.64918359 12.22342606 0 0 Z " fill="#67AD28" transform="translate(133,93)"/>
<path d="M0 0 C6.8104842 8.35832152 5.86534268 18.7370358 5 29 C4.19569108 32.76562813 2.97570463 35.71124944 1 39 C0.56429687 39.7734375 0.12859375 40.546875 -0.3203125 41.34375 C-3.65243253 46.80624186 -7.7409531 51.31629823 -13 55 C-13.66 55 -14.32 55 -15 55 C-14.39174965 50.65535464 -13.73832608 46.32448133 -13 42 C-12.34 42 -11.68 42 -11 42 C-6.70550788 36.23633952 -4.7598551 30.57376083 -2.89453125 23.66015625 C-2 21 -2 21 0 20 C-0.51482919 25.852795 -1.45357192 31.3297637 -3 37 C2.7732385 25.53084316 2.03823591 12.3951257 0 0 Z " fill="#69AF29" transform="translate(106,51)"/>
<path d="M0 0 C2.29455415 2.29455415 2.42127384 3.34011373 3.125 6.4375 C5.93879698 16.20802118 12.50232869 23.64375505 21 29 C20.28972656 28.32453125 19.57945313 27.6490625 18.84765625 26.953125 C17.92855469 26.06109375 17.00945313 25.1690625 16.0625 24.25 C14.68771484 22.92742187 14.68771484 22.92742187 13.28515625 21.578125 C11.17570657 19.19823305 10.33932929 18.0900625 10 15 C10.8971875 15.99 10.8971875 15.99 11.8125 17 C16.84522359 22.01838534 23.02453696 27.11272727 29.75 29.5625 C34.05691162 31.46748014 37.08099062 34.31796689 40 38 C40 38.66 40 39.32 40 40 C27.4987448 39.19346741 17.73760326 34.37985592 8.96484375 25.421875 C2.78041188 17.79891723 -0.18621241 9.68304517 0 0 Z " fill="#67AD28" transform="translate(46,93)"/>
<path d="M0 0 C0.66 0.33 1.32 0.66 2 1 C1.5153125 1.41507813 1.030625 1.83015625 0.53125 2.2578125 C-4.02452559 6.4456216 -7.34150689 10.7796688 -10.375 16.125 C-10.70822266 16.71039551 -11.04144531 17.29579102 -11.38476562 17.89892578 C-14.14762705 22.93533283 -16 27.22272084 -16 33 C-15.74605469 32.20335937 -15.49210937 31.40671875 -15.23046875 30.5859375 C-13.47353428 25.17694824 -11.76578872 19.9784197 -9 15 C-8.34 15 -7.68 15 -7 15 C-8.77333333 20.57333333 -8.77333333 20.57333333 -10.0625 23 C-12.65709409 28.53513405 -12.28860725 35.1513416 -12.51757812 41.16601562 C-12.71899977 45.16784563 -13.25720605 48.38035103 -15 52 C-15.66 52 -16.32 52 -17 52 C-21.4324045 41.28835579 -21.38210807 30.59430164 -17.2578125 19.75 C-13.5887604 11.7282215 -8.09065951 4.04532975 0 0 Z " fill="#D1E556" transform="translate(101,52)"/>
<path d="M0 0 C10.33629039 -0.67778953 18.88953271 2.20136764 26.86328125 8.88671875 C34.108836 16.05279758 39.64273217 24.21191114 40.1875 34.5625 C40.0946875 35.7690625 40.0946875 35.7690625 40 37 C35.44493275 34.41469156 32.7270058 32.81751451 30.75 27.875 C27.39754223 19.65887292 21.27687968 13.81975148 14 9 C14.66 8.67 15.32 8.34 16 8 C17.13888672 8.83144531 17.13888672 8.83144531 18.30078125 9.6796875 C19.29464844 10.40414062 20.28851563 11.12859375 21.3125 11.875 C22.29863281 12.59429687 23.28476563 13.31359375 24.30078125 14.0546875 C26.17523115 15.4055935 28.07752993 16.71835329 30 18 C21.4339059 9.29855002 11.93111547 3.77467802 0 1 C0 0.67 0 0.34 0 0 Z " fill="#D9EB59" transform="translate(50,91)"/>
<path d="M0 0 C-2.51671152 2.20212258 -4.47185035 3.15994927 -7.6875 4.25 C-15.85040549 7.16858073 -21.71407751 13.35871277 -27 20 C-26.31164062 19.29423828 -26.31164062 19.29423828 -25.609375 18.57421875 C-19.51493849 12.39015817 -19.51493849 12.39015817 -16 10 C-15.34 10.33 -14.68 10.66 -14 11 C-14.50789063 11.46148437 -15.01578125 11.92296875 -15.5390625 12.3984375 C-21.41264645 17.96404326 -26.1697593 23.98159809 -28.96875 31.65625 C-30.45404823 35.03192779 -32.89097913 36.17513992 -36 38 C-36.94796478 28.52035221 -33.53237953 21.78385113 -27.94921875 14.22265625 C-20.16473705 5.02784217 -12.12141858 -0.2331042 0 0 Z " fill="#D9EA59" transform="translate(128,91)"/>
<path d="M0 0 C12.99787703 6.1465015 21.19042023 19.95583668 26 33 C28.68328381 40.90290969 29.41654682 48.05806818 29.25 56.375 C29.24484375 57.42816406 29.2396875 58.48132813 29.234375 59.56640625 C29.18745464 64.19392665 29.01904196 68.47149187 28 73 C26.515 72.505 26.515 72.505 25 72 C25.01571045 71.24493164 25.0314209 70.48986328 25.04760742 69.71191406 C25.11073548 66.22468843 25.14923498 62.73758367 25.1875 59.25 C25.21263672 58.06277344 25.23777344 56.87554687 25.26367188 55.65234375 C25.4008045 38.9221638 20.23361815 24.51939372 9 12 C6.60992949 9.60611149 4.19785977 7.25109474 1.72265625 4.9453125 C0 3 0 3 0 0 Z " fill="#E8F1E9" transform="translate(130,34)"/>
<path d="M0 0 C0.66 0.33 1.32 0.66 2 1 C0.87972826 4.36081523 0.06597578 4.97429735 -2.625 7.125 C-13.71410094 16.63276747 -22.25670835 31.16952712 -23.83886719 45.82714844 C-24.13053554 49.76025204 -24.14377211 53.68285693 -24.125 57.625 C-24.12886719 58.44484375 -24.13273437 59.2646875 -24.13671875 60.109375 C-24.12962857 64.51946828 -23.88511265 68.65873317 -23 73 C-24.485 73.495 -24.485 73.495 -26 74 C-30.64571364 55.95709604 -28.44307686 38.17478978 -19.625 21.70703125 C-15.04371083 14.07522021 -8.11161566 4.05580783 0 0 Z " fill="#EBF4EC" transform="translate(48,34)"/>
<path d="M0 0 C0.66 0 1.32 0 2 0 C2.8175507 2.54013909 3.62915186 5.08193231 4.4375 7.625 C4.66759766 8.33785156 4.89769531 9.05070312 5.13476562 9.78515625 C10.82701438 27.76936246 8.7699745 46.33975661 3 64 C2.34 64 1.68 64 1 64 C0.85861777 59.29904096 1.27449608 55.40255615 2.5 50.875 C5.91243213 35.52721914 4.46538279 20.92047582 0 6 C-0.69140625 3.125 -0.69140625 3.125 -1 1 C-0.67 0.67 -0.34 0.34 0 0 Z " fill="#0D5118" transform="translate(169,57)"/>
<path d="M0 0 C2 2 2 2 2.125 4.625 C2.08375 5.40875 2.0425 6.1925 2 7 C2.66 7 3.32 7 4 7 C4.6875 9.3125 4.6875 9.3125 5 12 C3.29069613 14.88445028 1.5432757 15.14708071 -1.6875 16.1875 C-2.780625 16.455625 -3.87375 16.72375 -5 17 C-5.65134925 15.43979133 -6.29582964 13.87671421 -6.9375 12.3125 C-7.29714844 11.44238281 -7.65679687 10.57226562 -8.02734375 9.67578125 C-8.9570312 7.11820735 -9.54162625 4.6778677 -10 2 C-6.52254801 0.41030766 -3.83557374 -0.41465662 0 0 Z " fill="#D2E0D3" transform="translate(68,19)"/>
<path d="M0 0 C6.75 1.75 6.75 1.75 9 4 C9.125 6.625 9.125 6.625 9 9 C7.02 9.99 7.02 9.99 5 11 C5.66 13.64 6.32 16.28 7 19 C5.68 18.67 4.36 18.34 3 18 C2.67 15.69 2.34 13.38 2 11 C1.34 11 0.68 11 0 11 C-0.33 12.65 -0.66 14.3 -1 16 C-2.32 15.67 -3.64 15.34 -5 15 C-4.54705135 13.24859857 -4.08741252 11.49892656 -3.625 9.75 C-3.36976562 8.77546875 -3.11453125 7.8009375 -2.8515625 6.796875 C-2.10401491 4.34162697 -1.22876183 2.24382595 0 0 Z " fill="#DFE8DF" transform="translate(111,18)"/>
<path d="M0 0 C1.875 0.125 1.875 0.125 4 1 C5.25 4.0625 5.25 4.0625 6 7 C7.54571278 4.68143083 8.79618552 2.49361571 10 0 C11.32 0 12.64 0 14 0 C12.41078475 5.36095277 10.81027062 10.70843973 9 16 C7.35 16 5.7 16 4 16 C3.32815382 13.89748139 2.66269032 11.79292237 2 9.6875 C1.443125 7.92986328 1.443125 7.92986328 0.875 6.13671875 C0 3 0 3 0 0 Z " fill="#ECF1EC" transform="translate(83,15)"/>
<path d="M0 0 C0.66 0.33 1.32 0.66 2 1 C1.125 7.75 1.125 7.75 0 10 C1.98 9.34 3.96 8.68 6 8 C6 8.99 6 9.98 6 11 C4.390625 12.421875 4.390625 12.421875 2.25 13.75 C1.55390625 14.19859375 0.8578125 14.6471875 0.140625 15.109375 C-2.38473764 16.16007332 -3.47856025 15.93134261 -6 15 C-5.47731534 12.23723823 -4.89130413 9.6739124 -4 7 C-5.65 7.66 -7.3 8.32 -9 9 C-9.33 8.01 -9.66 7.02 -10 6 C-8.3811004 4.96951963 -6.75467511 3.95085322 -5.125 2.9375 C-4.22007813 2.36902344 -3.31515625 1.80054687 -2.3828125 1.21484375 C-1.20332031 0.61349609 -1.20332031 0.61349609 0 0 Z " fill="#EAEFEA" transform="translate(33,116)"/>
<path d="M0 0 C0.66 0 1.32 0 2 0 C8.64521294 14.60107342 7.10791987 29.41009757 6 45 C5.67 45 5.34 45 5 45 C4.9906543 44.38705078 4.98130859 43.77410156 4.97167969 43.14257812 C4.72377402 30.14454349 3.67936351 18.47917456 0 6 C-0.6875 3.1328125 -0.6875 3.1328125 -1 1 C-0.67 0.67 -0.34 0.34 0 0 Z " fill="#084910" transform="translate(169,57)"/>
<path d="M0 0 C0.55171875 0.38929688 1.1034375 0.77859375 1.671875 1.1796875 C0.33854167 5.1796875 -0.99479167 9.1796875 -2.328125 13.1796875 C-3.318125 13.1796875 -4.308125 13.1796875 -5.328125 13.1796875 C-5.988125 11.1996875 -6.648125 9.2196875 -7.328125 7.1796875 C-8.648125 7.5096875 -9.968125 7.8396875 -11.328125 8.1796875 C-11.658125 7.1896875 -11.988125 6.1996875 -12.328125 5.1796875 C-10.75765757 4.11872287 -9.17117983 3.08142515 -7.578125 2.0546875 C-6.69640625 1.47460938 -5.8146875 0.89453125 -4.90625 0.296875 C-2.328125 -0.8203125 -2.328125 -0.8203125 0 0 Z " fill="#E7EDE7" transform="translate(49.328125,135.8203125)"/>
<path d="M0 0 C3.05398761 1.19887943 5.30831155 2.96504483 7.75 5.125 C8.67039063 5.93324219 8.67039063 5.93324219 9.609375 6.7578125 C10.06828125 7.16773438 10.5271875 7.57765625 11 8 C10.67 8.66 10.34 9.32 10 10 C8.02 10 6.04 10 4 10 C3.34 11.65 2.68 13.3 2 15 C1.34 15 0.68 15 0 15 C-0.66 10.38 -1.32 5.76 -2 1 C-1.34 0.67 -0.68 0.34 0 0 Z " fill="#EFF2EF" transform="translate(120,143)"/>
<path d="M0 0 C2.0625 0.4375 2.0625 0.4375 4 1 C4.68707555 3.49064888 5 5.37886292 5 8 C5.94978897 10.15028304 5.94978897 10.15028304 7 12 C4.13275314 11.42655063 3.1385485 11.1385485 1 9 C0.67 10.32 0.34 11.64 0 13 C-0.99 13 -1.98 13 -3 13 C-4.29243536 8.8803623 -5.26252625 5.33168317 -5 1 C-4.01 1 -3.02 1 -2 1 C-2 2.32 -2 3.64 -2 5 C-1.01 5 -0.02 5 1 5 C1 4.01 1 3.02 1 2 C0.34 1.67 -0.32 1.34 -1 1 C-0.67 0.67 -0.34 0.34 0 0 Z " fill="#E4EBE4" transform="translate(103,150)"/>
<path d="M0 0 C0.99 0 1.98 0 3 0 C3 3.3 3 6.6 3 10 C3.99 10.33 4.98 10.66 6 11 C6.33 7.7 6.66 4.4 7 1 C7.99 1 8.98 1 10 1 C9.85962479 2.81293089 9.71255111 4.6253443 9.5625 6.4375 C9.48128906 7.44683594 9.40007812 8.45617187 9.31640625 9.49609375 C9 12 9 12 8 13 C6.1875 13.1328125 6.1875 13.1328125 4 13.125 C3.278125 13.12757813 2.55625 13.13015625 1.8125 13.1328125 C0 13 0 13 -1 12 C-1.09851171 10.16884117 -1.12972629 8.33380067 -1.125 6.5 C-1.12757812 5.4996875 -1.13015625 4.499375 -1.1328125 3.46875 C-1 1 -1 1 0 0 Z " fill="#EBF0EB" transform="translate(78,150)"/>
<path d="M0 0 C0.66 0.33 1.32 0.66 2 1 C1.5153125 1.41507813 1.030625 1.83015625 0.53125 2.2578125 C-5.20736278 7.53292194 -8.69673511 13.24009876 -12.3359375 20.0234375 C-14 23 -14 23 -16 25 C-16.69098477 18.66597295 -15.60295316 15.32655708 -11.859375 10.18359375 C-8.50452903 6.24376413 -4.66841326 2.33420663 0 0 Z " fill="#DBEB5A" transform="translate(101,52)"/>
<path d="M0 0 C0.66 0 1.32 0 2 0 C2.55353075 19.00455581 2.55353075 19.00455581 -1 27 C-1.99 26.34 -2.98 25.68 -4 25 C-4.05632424 22.19564589 -3.95814702 19.64853322 -3.6875 16.875 C-3.62626953 16.12089844 -3.56503906 15.36679688 -3.50195312 14.58984375 C-3.3485467 12.72536562 -3.17606541 10.86247502 -3 9 C-2.34 9 -1.68 9 -1 9 C-0.67 6.03 -0.34 3.06 0 0 Z " fill="#215A27" transform="translate(137,81)"/>
<path d="M0 0 C0.66 0 1.32 0 2 0 C1.49396008 2.16874252 1.00016187 3.99967627 0 6 C0.7425 5.484375 1.485 4.96875 2.25 4.4375 C5 3 5 3 7.25 3.25 C9 4 9 4 10 5 C10.1875 7.4375 10.1875 7.4375 10 10 C9.34 10.66 8.68 11.32 8 12 C7.01 12 6.02 12 5 12 C5.66 10.35 6.32 8.7 7 7 C6.443125 7.350625 5.88625 7.70125 5.3125 8.0625 C2.46113217 9.21845993 0.91482778 8.80967438 -2 8 C-2.125 5.125 -2.125 5.125 -2 2 C-1.34 1.34 -0.68 0.68 0 0 Z " fill="#EBF0EB" transform="translate(146,116)"/>
<path d="M0 0 C3.79588866 0.54226981 5.47211993 2.20127563 8 5 C9.65 4.34 11.3 3.68 13 3 C13 7 13 7 11.6875 8.75 C10 10 10 10 7 10 C7 9.34 7 8.68 7 8 C6.401875 7.731875 5.80375 7.46375 5.1875 7.1875 C2.98180967 5.99012525 1.56416813 4.95521016 0 3 C0 2.01 0 1.02 0 0 Z " fill="#E2EAE2" transform="translate(132,134)"/>
<path d="M0 0 C1.20849609 0.04833984 2.41699219 0.09667969 3.66210938 0.14648438 C4.92474609 0.20255859 6.18738281 0.25863281 7.48828125 0.31640625 C8.76251953 0.36861328 10.03675781 0.42082031 11.34960938 0.47460938 C14.50024164 0.6044107 17.65056702 0.73938185 20.80078125 0.87890625 C20.80078125 1.20890625 20.80078125 1.53890625 20.80078125 1.87890625 C19.55941406 1.93949219 18.31804687 2.00007812 17.0390625 2.0625 C15.39712548 2.14694248 13.75519893 2.23158861 12.11328125 2.31640625 C10.88834961 2.37538086 10.88834961 2.37538086 9.63867188 2.43554688 C5.58725368 2.64877941 1.77512756 3.02726061 -2.19921875 3.87890625 C-3.63550332 3.94157137 -5.07427425 3.96576972 -6.51171875 3.94140625 C-8.33703125 3.91046875 -8.33703125 3.91046875 -10.19921875 3.87890625 C-9.86921875 2.88890625 -9.53921875 1.89890625 -9.19921875 0.87890625 C-5.83969519 -0.24093494 -3.53011418 -0.14915975 0 0 Z " fill="#094810" transform="translate(78.19921875,4.12109375)"/>
<path d="M0 0 C0 3 0 3 -2.66796875 5.9609375 C-3.83364975 7.1066354 -5.00720588 8.24436227 -6.1875 9.375 C-7.0547168 10.22191406 -7.0547168 10.22191406 -7.93945312 11.0859375 C-9.08173489 12.20111427 -10.22864519 13.31157177 -11.38037109 14.41699219 C-12.87316353 15.87603141 -14.30886224 17.39288335 -15.73828125 18.9140625 C-18 21 -18 21 -21 21 C-18.9286551 17.11874209 -16.82803584 14.80897492 -13.3125 12.1875 C-8.48023952 8.46218906 -4.20318668 4.41452008 0 0 Z " fill="#0F4A14" transform="translate(155,143)"/>
<path d="M0 0 C2.97 0.99 5.94 1.98 9 3 C9 3.99 9 4.98 9 6 C7.68 5.67 6.36 5.34 5 5 C4.01 7.97 3.02 10.94 2 14 C1.01 13.67 0.02 13.34 -1 13 C-0.48961944 10.44809718 0.02213171 7.9070468 0.625 5.375 C1.20892371 2.85957587 1.20892371 2.85957587 0 0 Z " fill="#E4EAE4" transform="translate(60,144)"/>
<path d="M0 0 C2.26444197 2.26444197 2.41656163 3.18694854 3 6.25 C3.17015625 7.05824219 3.3403125 7.86648437 3.515625 8.69921875 C3.67546875 9.45847656 3.8353125 10.21773437 4 11 C5.38971781 16.67468104 8.39024446 20.52753559 12 25 C11.67 25.66 11.34 26.32 11 27 C4.57111138 20.33538547 0.09473458 12.68407471 -0.0625 3.25 C-0.041875 2.1775 -0.02125 1.105 0 0 Z " fill="#6FB52A" transform="translate(46,93)"/>
<path d="M0 0 C0.99 0.33 1.98 0.66 3 1 C2.34 5.95 1.68 10.9 1 16 C0.67 16 0.34 16 0 16 C-2.27529157 10.78021347 -2.13953601 6.46747074 -1 1 C-0.67 0.67 -0.34 0.34 0 0 Z " fill="#175720" transform="translate(6,67)"/>
<path d="M0 0 C0.33 0 0.66 0 1 0 C1.06058594 0.88042969 1.12117187 1.76085937 1.18359375 2.66796875 C1.26738281 3.82941406 1.35117188 4.99085937 1.4375 6.1875 C1.55931641 7.91033203 1.55931641 7.91033203 1.68359375 9.66796875 C1.93243668 12.91920712 1.93243668 12.91920712 2.5625 15.75 C3.08281322 18.42589657 2.6734045 20.38120473 2 23 C1.01 22.67 0.02 22.34 -1 22 C-0.67 14.74 -0.34 7.48 0 0 Z " fill="#C9E0CB" transform="translate(156,84)"/>
<path d="M0 0 C0.99 0 1.98 0 3 0 C4.59138085 4.17737474 5.21278058 7.53160785 5 12 C4.01 12 3.02 12 2 12 C0.70756464 7.8803623 -0.26252625 4.33168317 0 0 Z " fill="#F3F5F3" transform="translate(98,151)"/>
<path d="M0 0 C0.66 0.33 1.32 0.66 2 1 C-0.08215303 2.77223719 -2.16566919 4.54282726 -4.25 6.3125 C-4.83652344 6.81201172 -5.42304687 7.31152344 -6.02734375 7.82617188 C-8.95626566 10.31081912 -11.88855374 12.7434313 -15 15 C-12.27667692 8.75730557 -6.23518625 2.75081746 0 0 Z " fill="#8BC533" transform="translate(115,97)"/>
<path d="M0 0 C3.875 0.875 3.875 0.875 5 2 C5.1875 4.4375 5.1875 4.4375 5 7 C4.34 7.66 3.68 8.32 3 9 C2.01 9 1.02 9 0 9 C0.66 7.35 1.32 5.7 2 4 C1.34 4 0.68 4 0 4 C0 2.68 0 1.36 0 0 Z " fill="#DDE7DE" transform="translate(151,119)"/>
<path d="M0 0 C0.33 0 0.66 0 1 0 C1 3.63 1 7.26 1 11 C1.99 10.67 2.98 10.34 4 10 C3.34 12.64 2.68 15.28 2 18 C1.01 17.34 0.02 16.68 -1 16 C-1.05632424 13.19564589 -0.95814702 10.64853322 -0.6875 7.875 C-0.62626953 7.12089844 -0.56503906 6.36679688 -0.50195312 5.58984375 C-0.3485467 3.72536562 -0.17606541 1.86247502 0 0 Z " fill="#20601B" transform="translate(134,90)"/>
<path d="M0 0 C0.99 0.33 1.98 0.66 3 1 C2.67 3.97 2.34 6.94 2 10 C1.01 10.33 0.02 10.66 -1 11 C-1.125 3.375 -1.125 3.375 0 0 Z " fill="#C7D7C7" transform="translate(121,147)"/>
<path d="M0 0 C0.33 0 0.66 0 1 0 C2.05244755 5.26223776 2.05244755 5.26223776 2 8 C0.125 10.375 0.125 10.375 -2 12 C-2.33 12.66 -2.66 13.32 -3 14 C-3.66 14 -4.32 14 -5 14 C-3.46527032 9.27775484 -1.76054874 4.64144669 0 0 Z " fill="#1B5622" transform="translate(169,116)"/>
<path d="M0 0 C3.24299151 2.38957269 5.50902342 4.2047869 7 8 C6.34 8.66 5.68 9.32 5 10 C3.96704564 8.90716423 2.94892165 7.80029421 1.9375 6.6875 C1.36902344 6.07261719 0.80054687 5.45773438 0.21484375 4.82421875 C-0.38650391 3.92123047 -0.38650391 3.92123047 -1 3 C-0.67 2.01 -0.34 1.02 0 0 Z " fill="#E5F15E" transform="translate(78,103)"/>
<path d="M0 0 C0.33 0 0.66 0 1 0 C1.3540919 6.51791392 1.03901852 11.17521449 -2 17 C-3.59190467 13.81619067 -2.28749598 10.71923676 -1.5625 7.375 C-1.41490234 6.66859375 -1.26730469 5.9621875 -1.11523438 5.234375 C-0.74950507 3.48831251 -0.37552879 1.74398116 0 0 Z " fill="#71B62B" transform="translate(133,93)"/>
<path d="M0 0 C0 0.66 0 1.32 0 2 C0.66 2.33 1.32 2.66 2 3 C-1.73437848 3.87867729 -5.16774573 4.08912219 -9 4 C-7 1 -7 1 -5.0625 0.3125 C-3 0 -3 0 0 0 Z " fill="#155720" transform="translate(68,6)"/>
<path d="M0 0 C3.91939465 3.80411834 7.49102731 7.81576108 11 12 C10.01 12 9.02 12 8 12 C5.95703125 9.8828125 5.95703125 9.8828125 3.8125 7.125 C3.09707031 6.22007813 2.38164063 5.31515625 1.64453125 4.3828125 C0 2 0 2 0 0 Z " fill="#237826" transform="translate(43,119)"/>
<path d="M0 0 C0.33 0 0.66 0 1 0 C1.19573608 1.43640171 1.38127816 2.87419504 1.5625 4.3125 C1.66691406 5.11300781 1.77132812 5.91351563 1.87890625 6.73828125 C2 9 2 9 1 12 C0.01 12 -0.98 12 -2 12 C-2 10.35 -2 8.7 -2 7 C-1.34 7 -0.68 7 0 7 C0 4.69 0 2.38 0 0 Z " fill="#084A10" transform="translate(44,91)"/>
<path d="M0 0 C1.0326802 2.78823655 1.04509293 3.8677274 0.0625 6.75 C-0.288125 7.4925 -0.63875 8.235 -1 9 C-1.99 8.67 -2.98 8.34 -4 8 C-3.50168276 4.31245243 -2.89932357 2.39509338 0 0 Z " fill="#ECF1EC" transform="translate(63,149)"/>
<path d="M0 0 C1.0326802 2.78823655 1.04509293 3.8677274 0.0625 6.75 C-0.288125 7.4925 -0.63875 8.235 -1 9 C-1.99 8.67 -2.98 8.34 -4 8 C-3.67 6.35 -3.34 4.7 -3 3 C-2.01 2.67 -1.02 2.34 0 2 C0 1.34 0 0.68 0 0 Z " fill="#0B4C14" transform="translate(10,59)"/>
<path d="M0 0 C0.99 0 1.98 0 3 0 C2.67 2.64 2.34 5.28 2 8 C1.01 8 0.02 8 -1 8 C-1.04241723 5.66705225 -1.04092937 3.33297433 -1 1 C-0.67 0.67 -0.34 0.34 0 0 Z " fill="#E2EAE2" transform="translate(78,150)"/>
<path d="M0 0 C1.53690745 2.41040161 2.09752136 3.50082285 1.5390625 6.359375 C1.23742187 7.14828125 0.93578125 7.9371875 0.625 8.75 C0.32851562 9.54921875 0.03203125 10.3484375 -0.2734375 11.171875 C-0.51320313 11.77515625 -0.75296875 12.3784375 -1 13 C-1.33 13 -1.66 13 -2 13 C-2.19294408 8.17639811 -1.75747614 4.50353262 0 0 Z " fill="#AAD442" transform="translate(86,75)"/>
<path d="M0 0 C2.31 0.66 4.62 1.32 7 2 C7 2.99 7 3.98 7 5 C6.34 4.34 5.68 3.68 5 3 C3.05925139 3.27617533 3.05925139 3.27617533 1 4 C-0.33333333 4.33333333 -1.66666667 4.66666667 -3 5 C-2.67 4.01 -2.34 3.02 -2 2 C-1.34 2 -0.68 2 0 2 C0 1.34 0 0.68 0 0 Z " fill="#106A13" transform="translate(149,117)"/>
<path d="M0 0 C1.32 0.66 2.64 1.32 4 2 C3.25 3.9375 3.25 3.9375 2 6 C-0.125 6.75 -0.125 6.75 -2 7 C-1.34 4.69 -0.68 2.38 0 0 Z " fill="#BED0BF" transform="translate(47,135)"/>
<path d="M0 0 C0.66 0.33 1.32 0.66 2 1 C-0.97 3.64 -3.94 6.28 -7 9 C-7 6 -7 6 -4.625 3.375 C-2 1 -2 1 0 0 Z " fill="#70B42B" transform="translate(107,122)"/>
<path d="M0 0 C0.33 0.66 0.66 1.32 1 2 C1.66 2.33 2.32 2.66 3 3 C-0.96 4.98 -0.96 4.98 -5 7 C-3.88820837 3.66462511 -2.52588702 2.36292656 0 0 Z " fill="#18531E" transform="translate(49,13)"/>
</svg>
